<svg width="14" height="14" viewBox="0 0 14 14" fill="none" xmlns="http://www.w3.org/2000/svg">
<path d="M4.44415 4.49805V3.66016H3.20197L3.19611 3.08008C3.19611 2.85352 3.2254 2.65234 3.284 2.47656C3.34259 2.30078 3.43439 2.1543 3.55939 2.03711C3.68048 1.91602 3.83673 1.82617 4.02814 1.76758C4.21954 1.70508 4.4422 1.67188 4.69611 1.66797C4.85236 1.66797 4.99884 1.68359 5.13556 1.71484C5.27618 1.74609 5.39728 1.78711 5.49884 1.83789L5.63361 0.976562C5.45001 0.910156 5.27032 0.855469 5.09454 0.8125C4.92267 0.769531 4.74493 0.748047 4.56134 0.748047C4.18634 0.748047 3.84845 0.798828 3.54767 0.900391C3.24689 1.00195 2.99103 1.15039 2.78009 1.3457C2.56525 1.54492 2.40118 1.79102 2.2879 2.08398C2.17462 2.37305 2.11798 2.70508 2.11798 3.08008V3.66016H1.08087V4.49805H2.11798V10.3047C2.11407 10.5586 2.07892 10.7812 2.01251 10.9727C1.95001 11.1641 1.85626 11.3184 1.73126 11.4355C1.64923 11.5098 1.55157 11.5664 1.43829 11.6055C1.32892 11.6484 1.20782 11.6699 1.07501 11.6699C0.989075 11.6699 0.852356 11.6543 0.664856 11.623C0.481262 11.5918 0.332825 11.5449 0.219543 11.4824L0.137512 12.3496C0.289856 12.4277 0.444153 12.4824 0.600403 12.5137C0.756653 12.5449 0.914856 12.5605 1.07501 12.5605C1.40704 12.5605 1.70392 12.5098 1.96564 12.4082C2.23126 12.3105 2.45587 12.166 2.63947 11.9746C2.81915 11.7871 2.95782 11.5527 3.05548 11.2715C3.15314 10.9902 3.20197 10.668 3.20197 10.3047V4.49805H4.44415Z" fill="#18181C"/>
<path d="M6.52073 8.46591L8.62301 6.36364L6.52073 4.28977L4.41846 6.36364L6.52073 8.46591ZM9.2196 11.1364L11.2935 9.0625L9.2196 6.96023L7.11732 9.0625L9.2196 11.1364ZM9.2196 5.76705L11.2935 3.69318L9.2196 1.59091L7.11732 3.69318L9.2196 5.76705ZM11.8901 8.46591L13.9639 6.36364L11.8901 4.28977L9.81619 6.36364L11.8901 8.46591ZM6.52073 7.39347L5.50156 6.36364L6.52073 5.34801L7.54346 6.36364L6.52073 7.39347ZM11.8901 7.39347L10.8673 6.36364L11.8901 5.34801L12.9057 6.36364L11.8901 7.39347ZM9.2196 4.6946L8.20042 3.69318L9.2196 2.66335L10.2175 3.69318L9.2196 4.6946ZM9.2196 10.0639L8.20042 9.0625L9.2196 8.04688L10.2175 9.0625L9.2196 10.0639Z" fill="#18181C"/>
</svg>
