<svg width="14" height="14" viewBox="0 0 14 14" fill="none" xmlns="http://www.w3.org/2000/svg">
<path d="M5.93519 11.8537V10.6733C4.93377 10.6733 4.69513 10.2642 4.69513 9.37784V7.98011C4.69513 7.31534 4.43093 6.75284 3.28036 6.52273V6.3608C4.43093 6.13068 4.69513 5.56392 4.69513 4.89915V3.50142C4.69513 2.61932 4.93377 2.21023 5.93519 2.21023V1.02557C4.23065 1.02557 3.22923 1.45597 3.22923 3.37784V4.46449C3.22923 5.35938 2.89684 5.72585 1.92951 5.72585V7.15767C2.89684 7.15767 3.22923 7.52415 3.22923 8.41903V9.50142C3.22923 11.4233 4.23065 11.8537 5.93519 11.8537ZM8.06374 1.02983V2.21023C9.06516 2.21023 9.3038 2.61932 9.3038 3.50568V4.90341C9.3038 5.56818 9.568 6.13068 10.7186 6.3608V6.52273C9.568 6.75284 9.3038 7.3196 9.3038 7.98438V9.3821C9.3038 10.2642 9.06516 10.6733 8.06374 10.6733V11.858C9.76829 11.858 10.7697 11.4276 10.7697 9.50568V8.41903C10.7697 7.52415 11.1021 7.15767 12.0694 7.15767V5.72585C11.1021 5.72585 10.7697 5.35938 10.7697 4.46449V3.3821C10.7697 1.46023 9.76829 1.02983 8.06374 1.02983Z" fill="#FF4756"/>
</svg>
