<svg width="14" height="14" viewBox="0 0 14 14" fill="none" xmlns="http://www.w3.org/2000/svg">
<path d="M9.1123 4.82715V3.60352H7.68359V3.00879C7.68359 2.77637 7.71322 2.57129 7.77246 2.39355C7.83626 2.21582 7.93424 2.06543 8.06641 1.94238C8.19857 1.81478 8.36947 1.71908 8.5791 1.65527C8.79329 1.58691 9.04167 1.55046 9.32422 1.5459C9.51562 1.5459 9.6888 1.56413 9.84375 1.60059C10.0033 1.63704 10.1445 1.68717 10.2676 1.75098L10.4316 0.472656C10.2038 0.395182 9.98503 0.33138 9.77539 0.28125C9.56576 0.226562 9.34701 0.199219 9.11914 0.199219C8.64518 0.199219 8.21908 0.260742 7.84082 0.383789C7.46257 0.506836 7.14128 0.68457 6.87695 0.916992C6.60807 1.15397 6.40299 1.44792 6.26172 1.79883C6.12044 2.14974 6.0498 2.55306 6.0498 3.00879V3.60352H4.90137V4.82715H6.0498V11.1982C6.0498 11.4717 6.0179 11.7109 5.9541 11.916C5.8903 12.1211 5.79232 12.2852 5.66016 12.4082C5.57357 12.4857 5.46875 12.5472 5.3457 12.5928C5.22266 12.6383 5.08366 12.6611 4.92871 12.6611C4.82389 12.6611 4.65983 12.6406 4.43652 12.5996C4.21322 12.5632 4.04915 12.5085 3.94434 12.4355L3.8418 13.7344C4.04232 13.8301 4.24284 13.8962 4.44336 13.9326C4.64388 13.9691 4.84668 13.9873 5.05176 13.9873C5.46647 13.9873 5.83561 13.9258 6.15918 13.8027C6.4873 13.6842 6.7653 13.5065 6.99316 13.2695C7.21647 13.0326 7.38737 12.7409 7.50586 12.3945C7.62435 12.0482 7.68359 11.6494 7.68359 11.1982V4.82715H9.1123Z" fill="#9A76C8"/>
</svg>
