<svg width="14" height="14" viewBox="0 0 14 14" fill="none" xmlns="http://www.w3.org/2000/svg">
<path d="M3.26571 9.85227L6.2089 6.90909L3.26571 4.00568L0.322532 6.90909L3.26571 9.85227ZM7.04412 13.5909L9.94753 10.6875L7.04412 7.74432L4.10094 10.6875L7.04412 13.5909ZM7.04412 6.07386L9.94753 3.17045L7.04412 0.227272L4.10094 3.17045L7.04412 6.07386ZM10.7828 9.85227L13.6862 6.90909L10.7828 4.00568L7.87935 6.90909L10.7828 9.85227ZM3.26571 8.35085L1.83887 6.90909L3.26571 5.48722L4.69753 6.90909L3.26571 8.35085ZM10.7828 8.35085L9.35094 6.90909L10.7828 5.48722L12.2046 6.90909L10.7828 8.35085ZM7.04412 4.57244L5.61728 3.17045L7.04412 1.72869L8.44114 3.17045L7.04412 4.57244ZM7.04412 12.0895L5.61728 10.6875L7.04412 9.26562L8.44114 10.6875L7.04412 12.0895Z" fill="#FF8800"/>
</svg>
