<svg width="14" height="14" viewBox="0 0 14 14" fill="none" xmlns="http://www.w3.org/2000/svg">
<path d="M4.44415 4.49805V3.66016H3.20197L3.19611 3.08008C3.19611 2.85352 3.2254 2.65234 3.284 2.47656C3.34259 2.30078 3.43439 2.1543 3.55939 2.03711C3.68048 1.91602 3.83673 1.82617 4.02814 1.76758C4.21954 1.70508 4.4422 1.67188 4.69611 1.66797C4.85236 1.66797 4.99884 1.68359 5.13556 1.71484C5.27618 1.74609 5.39728 1.78711 5.49884 1.83789L5.63361 0.976562C5.45001 0.910156 5.27032 0.855469 5.09454 0.8125C4.92267 0.769531 4.74493 0.748047 4.56134 0.748047C4.18634 0.748047 3.84845 0.798828 3.54767 0.900391C3.24689 1.00195 2.99103 1.15039 2.78009 1.3457C2.56525 1.54492 2.40118 1.79102 2.2879 2.08398C2.17462 2.37305 2.11798 2.70508 2.11798 3.08008V3.66016H1.08087V4.49805H2.11798V10.3047C2.11407 10.5586 2.07892 10.7812 2.01251 10.9727C1.95001 11.1641 1.85626 11.3184 1.73126 11.4355C1.64923 11.5098 1.55157 11.5664 1.43829 11.6055C1.32892 11.6484 1.20782 11.6699 1.07501 11.6699C0.989075 11.6699 0.852356 11.6543 0.664856 11.623C0.481262 11.5918 0.332825 11.5449 0.219543 11.4824L0.137512 12.3496C0.289856 12.4277 0.444153 12.4824 0.600403 12.5137C0.756653 12.5449 0.914856 12.5605 1.07501 12.5605C1.40704 12.5605 1.70392 12.5098 1.96564 12.4082C2.23126 12.3105 2.45587 12.166 2.63947 11.9746C2.81915 11.7871 2.95782 11.5527 3.05548 11.2715C3.15314 10.9902 3.20197 10.668 3.20197 10.3047V4.49805H4.44415Z" fill="#FF4756"/>
<path d="M9.08807 9.2642V8.35795C8.41477 8.35795 8.27841 8.09943 8.27841 7.55114V6.72159C8.27841 6.28409 8.09091 5.89205 7.26705 5.72443V5.6108C8.09091 5.44318 8.27841 5.05114 8.27841 4.61648V3.78693C8.27841 3.2358 8.41477 2.97727 9.08807 2.97727V2.07386C7.94034 2.07386 7.11932 2.2642 7.11932 3.66477V4.29261C7.11932 4.875 6.90057 5.12216 6.24716 5.12216V6.21307C6.90057 6.21307 7.11932 6.46023 7.11932 7.04261V7.6733C7.11932 9.07386 7.94034 9.2642 9.08807 9.2642ZM10.3839 2.07102V2.97727C11.0572 2.97727 11.1935 3.2358 11.1935 3.78409V4.61364C11.1935 5.05114 11.381 5.44318 12.2049 5.6108V5.72443C11.381 5.89205 11.1935 6.28409 11.1935 6.71875V7.5483C11.1935 8.09943 11.0572 8.35795 10.3839 8.35795V9.26136C11.5316 9.26136 12.3526 9.07102 12.3526 7.67045V7.04261C12.3526 6.46023 12.5714 6.21307 13.2248 6.21307V5.12216C12.5714 5.12216 12.3526 4.875 12.3526 4.29261V3.66193C12.3526 2.26136 11.5316 2.07102 10.3839 2.07102Z" fill="#FF4756"/>
</svg>
